<?xml version="1.0" encoding="UTF-8"?>
<!DOCTYPE svg PUBLIC "-//W3C//DTD SVG 1.1//EN" "http://www.w3.org/Graphics/SVG/1.1/DTD/svg11.dtd">
<!-- Creator: CorelDRAW 2019 (64 Bit) -->
<svg xmlns="http://www.w3.org/2000/svg" xml:space="preserve" width="15.2398mm" height="15.2398mm" version="1.1" style="shape-rendering:geometricPrecision; text-rendering:geometricPrecision; image-rendering:optimizeQuality; fill-rule:evenodd; clip-rule:evenodd"
viewBox="0 0 1523.98 1523.98"
 xmlns:xlink="http://www.w3.org/1999/xlink"
 xmlns:xodm="http://www.corel.com/coreldraw/odm/2003">
 <defs>
  <style type="text/css">
   <![CDATA[
    .str0 {stroke:#F58634;stroke-width:4.23;stroke-miterlimit:22.9256}
    .fil3 {fill:#FEFEFE}
    .fil4 {fill:#F58634}
    .fil1 {fill:#C9C8E0}
    .fil2 {fill:#9799C6}
    .fil0 {fill:#676FAF}
    .fil5 {fill:#3C4387}
    .fil6 {fill:#F58634;fill-rule:nonzero}
   ]]>
  </style>
 </defs>
 <g id="Camada_x0020_1">
  <metadata id="CorelCorpID_0Corel-Layer"/>
  <path class="fil0" d="M964.21 841.31c-18.96,8.36 -49.68,-0.37 -68.62,8.07 17.42,2.43 59.42,-1.92 68.52,9 7.62,3.65 4.83,-6.19 4.4,7.69 -0.32,10.6 1.18,2.85 -4.31,5.64 -3.47,4.8 8.16,3.31 -8.18,4.83 -34.51,-0.12 -189.06,-3.94 -209.97,3.62 20.58,7.44 197.96,13.31 217.01,20.54l-5.52 22.75c3.73,-4.24 2.52,-1.58 5.7,-6.44 8.05,-12.31 5.51,-11.08 5.19,-23.52l-61.5 -5.59c21.64,-3.58 51.36,-1.95 67.58,-5.87 4.11,-12.47 4.61,-16 1.7,-28.68 -12.43,-3.83 -32.47,-10.62 -41.79,-2.39l37.08 -5.27c4.72,-13.13 0.4,-41.17 -14.47,-48.87 2.32,11.31 4.09,13.12 7.2,22.67l-0.02 21.82z"/>
  <path class="fil0" d="M310.01 464.97c41.91,-7.08 117.52,13.41 161.58,12.9 6.57,9.67 2.07,21.72 -0.27,35.67 -28.22,167.89 40.44,41.75 4,3.05 8.04,-31.72 9.36,-35.78 -3.73,-38.72l-9.73 -6.68c25.72,-5.09 26.86,-8.8 36.73,-30.01 -11.84,-10.12 -32.2,-8.34 -48.09,-7.49 8.82,4.59 56.67,1.48 34.5,21.63 -12.56,11.42 -140.76,-2.56 -196.22,7.82l21.23 1.83z"/>
  <path class="fil1" d="M880.11 154.22c-33.3,-3.83 -231.7,-4.79 -251.82,7.54 33.16,4.89 84.93,13.55 120.22,15.95 30.29,2.07 105.66,-4.49 126.72,13.5 3.76,5.81 11.56,32.58 17.35,43.1l45.04 74.54c9,16.03 22.15,25.36 12.57,43.85 -16.09,13.62 -58.56,9.32 -81.28,9.14 -9.92,-11.04 -32.3,-26.84 -46.38,-31.51 6.6,7.65 42.93,35.57 50.69,36.68 0.8,0.11 73.35,-5.94 75.57,-6.43 15.47,-21.55 11.83,-19.89 -0.14,-40 -17.79,-29.91 -48.86,-80.06 -62.97,-110.23 -4.54,-9.7 -3.33,-19.49 -8.48,-28.05l-205.11 -20.81c55.16,-12.23 186.01,11.1 208.02,-7.27l5.31 -17.69c-35.33,-10.98 -98.43,-13.48 -135.01,-17.83 25.91,-1.82 136.77,0.53 150.66,-3.94 25.76,-8.29 67.19,-53.4 95.94,-62.97 28.29,-5.09 34.18,-45.41 97.34,-19.43l-18.08 -14.82c-32.45,-3.84 -39.27,0.23 -64.08,15.65l-93.46 66.49c-23.79,17.92 -39.13,11.92 -69.38,11.92 -26.86,-0.01 -132.72,-3.49 -149.96,6.96 19.27,9 146.74,17.46 179.67,19.84l1.05 15.82z"/>
  <path class="fil1" d="M758.52 802.08c-7.97,8.52 -20.73,12.77 -33.15,9.84 -28.08,17.08 -75.21,5.99 -109.33,3.29 65.06,28.67 151.3,-3.71 205.53,-35.93 47.66,-28.31 35.27,-35.92 90.59,-15.96 29.53,10.66 43.96,48.25 52.05,77.99 -49.52,-7.48 -105.91,3.13 -152.99,6.95 18.16,9.73 128.12,12.51 152.89,10.12l0.09 13.33c-29.86,-6.88 -255.6,-3.66 -275.69,8.43 30.13,17.74 233.26,11.06 263.57,26.61 2.41,17.27 -19.65,52.91 -14.99,63.48l34.57 7.12c5.41,15.38 16.29,60.61 37.68,25 -36.85,11.37 -14.24,-26.95 -46.74,-33.54 -16.37,-3.32 -20.24,1 -15.41,-18.25 1.69,-6.77 7.49,-22.11 10.35,-27.11l5.52 -22.75c-19.05,-7.23 -196.43,-13.1 -217.01,-20.54 20.91,-7.56 175.46,-3.74 209.97,-3.62 16.34,-1.52 4.71,-0.03 8.18,-4.83 5.49,-2.79 3.99,4.96 4.31,-5.64 0.43,-13.88 3.22,-4.04 -4.4,-7.69 -9.1,-10.92 -51.1,-6.57 -68.52,-9 18.94,-8.44 49.66,0.29 68.62,-8.07l0.02 -21.82c-3.11,-9.55 -4.88,-11.36 -7.2,-22.67 -7.14,-11.43 -9.81,-20.7 -22.15,-26.71l-5.77 -3c-6.73,2.57 -4.79,2.91 -2.76,-4.05 -6.7,2.62 -6.1,4.2 -3.68,-2.65 -51.06,-7.34 -29.13,-30.68 -87.34,5.79 -12.26,7.69 -66.35,37.03 -76.81,35.88z"/>
  <path class="fil1" d="M1227.43 940.96c26.18,-2.96 34.11,-11.13 56.6,-19.29 34.08,-12.36 45.33,-12.05 48.14,-24.4 -25.03,-15.87 -128.1,4.35 -167.65,-8.77 -3.65,-9.38 10.16,-26.6 13.74,-36.73 16.03,-45.3 12.7,-96.27 -18.14,-136.01 -38.56,-49.68 -109.67,-60.27 -149.76,-76.45 0.95,-8.69 19.73,-37.4 23.82,-52.11 35.98,24.96 75.88,35.06 118.78,31.51 23.64,-1.96 21.78,-4.55 27.98,-24.87 15.43,-2.89 32.13,-4.84 48.31,-6.13 26.5,-2.12 27.65,-7.06 47.27,-10.73 38.26,28.37 10.89,8.69 41.87,23.85 15.33,7.5 41.48,11.94 50.37,-6.54 -28.64,1.71 -17.7,8.41 -51.24,-0.39 -19.31,-5.06 -23.24,-15.84 -36.08,-20.07 -20.56,-6.78 -24.77,5.89 -45.41,7.93 -18.3,1.81 -37.71,0.22 -56.33,2.11 -8.19,11.23 -7.1,24.97 -24.17,28.03 -54.76,9.83 -91.52,-20.43 -119.08,-30.13 -11.38,6.4 -34.26,51.31 -34.44,61.35 16.87,9.81 44.53,12.74 83.84,30.79 29.39,13.5 46.45,19.96 66.81,46.18 59.8,77.02 -0.14,151.31 1.27,171.84 31.91,19.07 122.45,2.11 161.11,9.17 -7.56,2.88 -15.13,5.75 -22.69,8.63 -32.92,16.37 -45.72,10.43 -64.92,31.23z"/>
  <path class="fil2" d="M250.1 694.48l120.68 9.08c-12.52,20.46 -36.95,13.29 -61.42,13.28 -37.81,-0.01 -185.48,-4.02 -201.9,7.7 25.39,11.4 208.94,13.68 222.88,22.91 -3.56,22.52 -42.13,38.96 -42.78,61.36 14.23,2.13 66.8,-31.7 83.74,-39.96 25.49,-12.43 64.25,-27.57 90.85,-35.15 57.25,29.21 74.33,74.39 153.89,81.51 34.12,2.7 81.25,13.79 109.33,-3.29 12.42,2.93 25.18,-1.32 33.15,-9.84 10.46,1.15 64.55,-28.19 76.81,-35.88 58.21,-36.47 36.28,-13.13 87.34,-5.79 -2.42,6.85 -3.02,5.27 3.68,2.65 -2.03,6.96 -3.97,6.62 2.76,4.05l5.77 3c0,-6.9 1.37,-5.09 -5.77,-3 1.88,-6.67 3.69,-6.15 -2.76,-4.05 2.42,-6.84 3.01,-5.26 -3.68,-2.65 -6.16,-8.34 -33.41,-18.13 -44.47,-19.92 -14.48,-2.34 -27.62,10.84 -40.14,18.08 -15.89,9.19 -73.39,35.76 -79.54,43.51 -13.53,-0.69 -25.38,0.74 -33.15,9.84 -101.87,-7.63 -128.07,13.07 -217.55,-53.25 -52.26,-38.73 -26.46,-36.7 -90.43,-19.43 -32.61,8.81 -72.33,42.06 -92.09,37.15 3.05,-17.54 18.79,-20.37 18.25,-33.62 -10.22,-8.54 -143.21,-19.38 -163.03,-18.1 37.14,0.56 74.96,-0.32 112.18,-0.58 27.54,-0.18 81.56,10.85 86.63,-23.81 -13.29,-9.85 -15.65,-4.77 -30.01,-8.77l40.29 -2.07c6.24,2.75 21.4,4.94 31.85,-11.4l19.22 -18.57 9.07 -14.35c25.47,-30.92 26.72,-38.02 20.22,-85.06 -3.1,-22.47 -2.38,-24.35 1.35,-46.52 2.34,-13.95 6.84,-26 0.27,-35.67 -44.06,0.51 -119.67,-19.98 -161.58,-12.9 19.75,8.76 130.77,12.32 160.44,14.6 2.34,17.75 -3.72,40.12 -3.7,60.57 -50.9,219.17 -80.59,100.02 -216.65,154.34z"/>
  <path class="fil2" d="M765.77 686.33c-111.51,66.57 -295.15,1.57 -264.46,-185.75 12.47,-78.32 48.67,-2.58 104.27,-57.72 50.18,-49.76 3.38,-70.51 60.38,-69.06 59.7,1.52 95.34,10.74 143.04,73.57 11.56,15.24 23.38,39.29 28.89,57.54 19.22,63.66 -19.41,145.36 -72.12,181.42zm-272.66 -107.86c16.12,98.2 117.83,165.01 214.96,140.31 146.39,-37.22 198.56,-221.28 60.4,-324.5 -22.66,-16.92 -35.55,-20.02 -61.68,-28.24 -14.92,-4.7 -67.61,-8.9 -79.05,2.54 -6.79,6.78 -1.47,37.99 -24.41,65.88 -41.53,50.49 -88.13,1 -102.12,30.09 -10.59,12.12 -14.44,73.73 -8.1,113.92z"/>
  <path class="fil2" d="M880.11 154.22c-22.01,18.37 -152.86,-4.96 -208.02,7.27l205.11 20.81c5.15,8.56 3.94,18.35 8.48,28.05 14.11,30.17 45.18,80.32 62.97,110.23 11.97,20.11 15.61,18.45 0.14,40 -2.22,0.49 -74.77,6.54 -75.57,6.43 -100.68,-73.14 -16.03,40.62 39.34,-0.77 13.62,-0.62 28.4,3.36 40.73,0.62l15.39 -26.23c-11.23,-25.31 -54.02,-87.92 -69.91,-117.06 -7.83,-14.35 -12.87,-39.83 -16.7,-46.21 -15.58,-7.29 -37.52,2.08 -53.79,-7.68l52.63 -4.75c2.89,-4.67 6.97,-12.4 8.99,-16.85 6.74,-14.76 0.99,-11.28 8.91,-21.74 2.56,-3.37 27.01,-19.51 32.64,-24.03 17.42,-13.97 54.24,-34.42 65.56,-50.52 -28.75,9.57 -70.18,54.68 -95.94,62.97 -13.89,4.47 -124.75,2.12 -150.66,3.94 36.58,4.35 99.68,6.85 135.01,17.83l-5.31 17.69z"/>
  <path class="fil3" d="M837.89 504.91c-5.51,-18.25 -17.33,-42.3 -28.89,-57.54 -47.7,-62.83 -83.34,-72.05 -143.04,-73.57 -57,-1.45 -10.2,19.3 -60.38,69.06 -55.6,55.14 -91.8,-20.6 -104.27,57.72 -30.24,186.34 154.46,250.98 264.46,185.75 52.71,-36.06 91.34,-117.76 72.12,-181.42z"/>
  <path class="fil4 str0" d="M615.24 539.73l35.35 1.08 18.86 -25.72 19.59 1.02 -11.54 25.67 65 0.96c-5.55,-30.53 -32.91,-58.57 -54.16,-75.95 26.3,8.81 55.78,38.52 77.14,75.63 42.5,-7.8 -46.73,-80.71 -68.68,-97.85 54.68,32.17 93.68,44.18 95.85,111.78l0 4.82 -126.13 0.56 -91.25 84.75 54.42 -80.49 -34.92 0.49 20.47 -26.75z"/>
  <path class="fil5" d="M603.33 434.46c22.94,-27.89 17.62,-59.1 24.41,-65.88 11.44,-11.44 64.13,-7.24 79.05,-2.54 26.13,8.22 39.02,11.32 61.68,28.24 138.16,103.22 85.99,287.28 -60.4,324.5 -261.38,29.79 -232.44,-272.25 -190,-263.48 19.2,3.97 58.9,16.85 85.26,-20.84zm393.68 -382.67c-11.32,16.1 -48.14,36.55 -65.56,50.52 -5.63,4.52 -30.08,20.66 -32.64,24.03 -7.92,10.46 -2.17,6.98 -8.91,21.74 -2.02,4.45 -6.1,12.18 -8.99,16.85l-52.63 4.75c16.27,9.76 38.21,0.39 53.79,7.68 3.83,6.38 8.87,31.86 16.7,46.21 15.89,29.14 58.68,91.75 69.91,117.06l-15.39 26.23c-12.33,2.74 -27.11,-1.24 -40.73,-0.62 -45.22,2.05 -24.92,26.49 -66.53,-16.1 -48.13,-36.05 -36.7,0.7 -92.12,-17.98 -122.56,-41.3 -94.29,-6.48 -161.02,-11.68 -20.87,-1.63 -24.5,-12.56 -56.89,-6.61 -14.22,2.61 -26.23,12.95 -37.21,22.36 -31.33,26.84 -20.71,53.41 -16.02,73.41 1.34,5.73 2.2,10.93 1.44,15.44l-33.71 8.61c15.89,-0.85 36.25,-2.63 48.09,7.49 -9.87,21.21 -11.01,24.92 -36.73,30.01l9.73 6.68c13.09,2.94 11.77,7 3.73,38.72 -10.63,38.09 1.61,150.25 -85.71,172.85l-40.29 2.07c14.36,4 16.72,-1.08 30.01,8.77 -5.07,34.66 -59.09,23.63 -86.63,23.81 -37.22,0.26 -75.04,1.14 -112.18,0.58 19.82,-1.28 152.81,9.56 163.03,18.1 0.54,13.25 -15.2,16.08 -18.25,33.62 19.76,4.91 59.48,-28.34 92.09,-37.15 63.97,-17.27 38.17,-19.3 90.43,19.43 89.48,66.32 115.68,45.62 217.55,53.25 7.77,-9.1 19.62,-10.53 33.15,-9.84 6.15,-7.75 63.65,-34.32 79.54,-43.51 12.52,-7.24 25.66,-20.42 40.14,-18.08 11.06,1.79 38.31,11.58 44.47,19.92 6.69,-2.61 6.1,-4.19 3.68,2.65 6.45,-2.1 4.64,-2.62 2.76,4.05 7.14,-2.09 5.77,-3.9 5.77,3 12.34,6.01 15.01,15.28 22.15,26.71 14.87,7.7 19.19,35.74 14.47,48.87l-37.08 5.27c9.32,-8.23 29.36,-1.44 41.79,2.39 2.91,12.68 2.41,16.21 -1.7,28.68 -16.22,3.92 -45.94,2.29 -67.58,5.87l61.5 5.59c0.32,12.44 2.86,11.21 -5.19,23.52 -3.18,4.86 -1.97,2.2 -5.7,6.44 -2.86,5 -8.66,20.34 -10.35,27.11 -4.83,19.25 -0.96,14.93 15.41,18.25 32.5,6.59 9.89,44.91 46.74,33.54 37,-9.72 76.78,-14.15 112.46,-27.08 13.74,-4.99 16.81,-4.26 29.55,-7.72l76.08 -26.59c14.78,-14.53 65.97,-29.39 87.61,-39.86 -38.66,-7.06 -129.2,9.9 -161.11,-9.17 -1.41,-20.53 58.53,-94.82 -1.27,-171.84 -20.36,-26.22 -37.42,-32.68 -66.81,-46.18 -39.31,-18.05 -66.97,-20.98 -83.84,-30.79 0.18,-10.04 23.06,-54.95 34.44,-61.35 27.56,9.7 64.32,39.96 119.08,30.13 17.07,-3.06 15.98,-16.8 24.17,-28.03 18.62,-1.89 38.03,-0.3 56.33,-2.11 20.64,-2.04 24.85,-14.71 45.41,-7.93 12.84,4.23 16.77,15.01 36.08,20.07 33.54,8.8 22.6,2.1 51.24,0.39 17.2,-2.66 40.28,-31.35 45.14,-49.16 14.34,-52.65 -32.12,-110.77 -88.48,-95.31 -86.85,23.83 -33.96,82.47 -109.51,81.3 -32.49,-0.5 -5.9,-11.01 -39.6,-12.14 -19.1,-0.63 -23.22,2.61 -42.02,-4.4 -58.63,-21.88 -41.57,-59.98 -97.81,-93.59l17.95 -25.09c45.12,-6.3 43.25,4.6 93.68,-13 46.14,-16.09 88.19,-73.28 91.57,-116.35 3.57,-45.53 30.81,-40.76 35.27,-65.38 -32.5,-8.94 -30.73,13.36 -48.71,-27.6 -8.07,-18.39 -26.25,-34.49 -29.88,-46.44 15.65,-31.72 124.16,-56.51 115.98,-100.52 -30.07,-10.49 -104.2,60.78 -139.81,67.17 -16.16,-7.29 -39.84,-45.64 -78.18,-61.42 -63.16,-25.98 -69.05,14.34 -97.34,19.43z"/>
  <path class="fil6" d="M408.76 1041.97c1.39,1.15 2.06,3.51 1.94,7.08 -0.13,3.51 -0.43,7.21 -0.91,10.96 -0.91,4.55 -2,9.39 -3.15,14.6 -2.61,10.17 -6.42,24.83 -11.39,43.97 -4.24,16.35 -9.99,38.57 -17.2,66.74 -7.2,28.16 -16.29,63.65 -27.13,106.46 -1.45,1.15 -2.97,2 -4.6,2.49 -1.7,0.42 -3.21,0.66 -4.66,0.66 -1.64,0 -3.27,-0.12 -4.97,-0.36 -1.88,-0.42 -3.63,-1.15 -5.33,-2.12 -1.39,-0.91 -2.79,-2.18 -4.24,-3.69 -1.39,-1.58 -2.48,-3.64 -3.21,-6.24 2.61,-10.42 5.09,-20.71 7.45,-30.89 2.36,-10.11 4.54,-19.38 6.42,-27.68 2.36,-9.44 4.6,-18.65 6.72,-27.67 -8.05,0.72 -15.93,1.69 -23.74,2.84 -7.81,1.22 -16.35,3.82 -25.56,7.82 -4.05,1.45 -8.05,2.84 -12.05,4.24 -3.33,1.21 -6.84,2.54 -10.47,4.11 -3.7,1.52 -6.73,2.91 -9.09,4.06l-8.11 25.92c13.68,9.69 24.28,19.62 31.73,29.8 7.45,10.17 12.84,19.5 16.17,28.04 4,9.93 6.24,19.62 6.72,29.13 0,10.35 -1.57,20.83 -4.6,31.37 -3.09,10.54 -7.15,20.59 -12.23,30.16 -5.09,9.57 -11.03,18.53 -17.75,26.83 -6.78,8.23 -13.87,15.32 -21.32,21.25 -7.44,5.94 -15.01,10.42 -22.71,13.51 -7.69,3.09 -14.95,4.24 -21.8,3.51 -4.96,-0.48 -9.14,-2.06 -12.41,-4.78 -3.33,-2.73 -5.82,-6.12 -7.45,-10.3 -1.7,-4.12 -2.61,-8.72 -2.85,-13.81 -0.24,-5.08 0.24,-10.11 1.39,-15.07 0.97,-4.97 2.97,-14.24 6.06,-27.68 2.6,-11.39 6.6,-27.86 12.05,-49.54 5.45,-21.62 12.78,-50.45 21.99,-86.36 -2.61,-2.61 -4.43,-5.15 -5.52,-7.63 -1.02,-2.49 -1.81,-4.91 -2.3,-7.27 -0.48,-2.6 -0.48,-5.21 0,-7.81 0.97,-3.33 2.37,-6.42 4.3,-9.27 1.64,-2.6 3.88,-5.27 6.73,-7.99 2.84,-2.67 6.6,-5.21 11.32,-7.63 3.09,-7.57 5.87,-15.51 8.36,-23.93 2.48,-8.41 4.66,-16.04 6.6,-22.89 2.12,-8.05 4,-16.11 5.63,-24.1 5.94,-20.11 9.03,-36.52 9.27,-49.18 0.24,-12.65 0,-21.01 -0.73,-25.01 -0.24,-1.63 -0.48,-3.33 -0.73,-4.97 -0.48,-1.45 -0.84,-3.02 -1.21,-4.78 -0.36,-1.76 -0.78,-3.51 -1.27,-5.15 2.61,-1.45 4.91,-2.6 6.9,-3.57 2.06,-0.91 3.76,-1.64 5.15,-2.12 1.7,-0.73 3.21,-1.15 4.67,-1.39 5.39,-1.21 10.53,-1.88 15.38,-2 4.9,-0.12 7.57,0.79 7.99,2.66 0.24,1.21 0.55,3.33 0.91,6.42 0.36,3.09 0.55,6.85 0.55,11.33 0,4.54 -0.37,9.57 -1.09,15.08 -0.73,5.57 -2,11.44 -3.88,17.56 -1.7,5.45 -3.94,13.02 -6.78,22.71 -2.61,8.3 -6,19.38 -10.3,33.19 -4.24,13.87 -9.81,31.55 -16.65,53.05 5.45,-1.88 11.08,-3.45 16.83,-4.78 5.82,-1.28 11.09,-2.43 15.81,-3.4 5.45,-0.9 10.78,-1.75 15.99,-2.48 6.12,-0.91 11.38,-1.57 15.8,-1.94 4.37,-0.36 8.18,-0.66 11.51,-0.84 2.61,-11.15 5.21,-22.11 7.81,-32.83 2.61,-10.78 4.97,-20.77 7.09,-29.98 2.12,-9.26 4,-17.26 5.51,-23.98 1.51,-6.72 2.54,-11.51 3.03,-14.35 0.67,-4.54 1.27,-8.9 1.76,-13.14 0.48,-3.82 0.72,-7.7 0.72,-11.69 0,-4.06 -0.36,-7.69 -1.09,-11.02 1.88,-1.22 4,-2.12 6.24,-2.85 2.24,-0.73 4.42,-1.33 6.54,-1.76 2.6,-0.72 5.21,-1.33 7.81,-1.81 2.61,-0.43 4.97,-0.67 7.09,-0.67 1.88,0 3.69,0.18 5.33,0.48 1.63,0.37 2.72,1.16 3.21,2.37zm-129.54 266.1c-2.12,-4.96 -4.61,-9.81 -7.45,-14.53 -2.61,-4.06 -5.76,-8.36 -9.39,-12.96 -3.69,-4.6 -7.99,-8.84 -12.96,-12.6 -3.33,11.81 -6.24,22.71 -8.72,32.65 -2.48,9.93 -4.54,18.71 -6.18,26.28 -2.12,8.72 -3.81,16.65 -4.96,23.74 -2.12,9.02 -4.36,17.86 -6.61,26.65 -2.24,8.72 -3.99,16.59 -5.26,23.55 -1.34,7.03 -1.88,12.6 -1.64,16.9 0.24,4.24 1.76,6.36 4.6,6.36 6.91,0.48 14.05,-2.18 21.5,-7.99 7.45,-5.76 14.23,-13.15 20.41,-21.99 6.12,-8.9 11.21,-18.47 15.26,-28.76 4,-10.3 6,-19.81 6,-28.53 0,-9.69 -1.51,-19.32 -4.6,-28.77zm234.91 -76.3c-2.36,9.02 -5.51,17.38 -9.56,25.19 -4,7.81 -8.79,14.6 -14.36,20.23 -5.57,5.69 -11.81,10.11 -18.83,13.32 -6.97,3.21 -14.6,4.79 -22.89,4.79 -9.69,0 -17.33,-2.06 -22.9,-6.18 -5.51,-4.18 -9.69,-9.33 -12.41,-15.44 -2.73,-6.18 -4.36,-12.9 -4.97,-20.23 -0.54,-7.33 -0.85,-14.23 -0.85,-20.59 0,-4.48 0.55,-9.45 1.58,-14.9 1.09,-5.45 2.54,-11.02 4.42,-16.72 1.94,-5.63 4.36,-11.32 7.27,-17.01 2.96,-5.7 6.48,-10.91 10.47,-15.63 1.46,-4 3.64,-7.57 6.61,-10.6 2.96,-3.09 6.35,-5.63 10.29,-7.63 3.88,-2.06 8.06,-3.57 12.6,-4.66 4.48,-1.03 8.84,-1.58 13.08,-1.58 0.73,0 1.39,0.12 2,0.37 0.54,0.24 1.21,0.48 1.94,0.72 3.08,0.25 6.9,1.4 11.5,3.52 4.67,2.12 9.15,5.33 13.51,9.57 4.36,4.3 8.11,9.69 11.2,16.17 3.03,6.48 4.6,14.35 4.6,23.61 0,1.88 -0.12,4.18 -0.36,6.91 -0.24,2.72 -0.48,5.02 -0.73,6.9 5.45,-2.12 11.15,-4.72 17.02,-7.81 5.94,-3.03 11.69,-6.3 17.26,-9.75 5.51,-3.39 10.66,-6.9 15.38,-10.48 4.79,-3.51 8.54,-6.72 11.39,-9.57 2.36,-2.12 4.36,-3.33 6.06,-3.51 1.63,-0.24 2.78,0.18 3.51,1.39 0.73,1.22 0.85,2.85 0.36,4.97 -0.48,2.12 -1.75,4.48 -3.87,7.09 -1.22,1.45 -4.24,4.23 -9.09,8.53 -4.84,4.24 -10.6,8.85 -17.2,13.81 -6.6,4.97 -13.87,9.81 -21.62,14.6 -7.81,4.72 -15.26,8.23 -22.41,10.6zm-59.95 -53.9c-0.73,2.12 -1.03,4.36 -1.03,6.72 0,3.81 0.18,7.75 0.66,11.87 0.49,4.18 1.7,7.87 3.58,11.2 1.88,3.33 4.9,6.06 9.02,8.36 4.18,2.24 9.87,3.33 17.2,3.33 1.21,0 2.42,-0.06 3.57,-0.18 1.22,-0.12 2.37,-0.3 3.58,-0.48 0.66,-3.09 1.33,-5.88 1.94,-8.36 0.6,-2.49 0.9,-4.67 0.9,-6.6 0.43,-4.49 0.43,-9.09 0,-13.81 -0.48,-4.73 -1.39,-9.09 -2.66,-12.96 -1.33,-3.88 -2.97,-7.09 -4.97,-9.57 -2.06,-2.48 -4.48,-3.76 -7.33,-3.76 -4.48,0 -8.78,1.28 -12.89,3.76 -4.18,2.48 -8,5.93 -11.57,10.48zm-22.71 62.44c0,4.24 0.24,8.47 0.72,12.59 0.49,4.12 1.4,7.82 2.85,11.02 1.39,3.15 3.27,5.76 5.69,7.82 2.37,2 5.39,2.96 9.21,2.96 4.24,0 8.17,-0.96 11.69,-2.96 3.57,-2.06 6.78,-4.67 9.57,-7.82 2.84,-3.2 5.39,-6.9 7.63,-11.02 2.24,-4.12 4.24,-8.48 5.87,-12.96 -1.63,0.24 -3.27,0.43 -4.78,0.55 -1.52,0.12 -3.27,0.18 -5.15,0.18 -8.96,0 -16.72,-2.67 -23.26,-8 -6.48,-5.32 -11.5,-12.11 -15.08,-20.4 -1.39,4.96 -2.6,9.81 -3.51,14.53 -0.97,4.72 -1.45,9.27 -1.45,13.51zm107.13 46.14c-1.63,2.61 -3.45,4.3 -5.45,5.15 -2.05,0.79 -3.81,0.91 -5.33,0.3 -1.57,-0.54 -2.54,-1.81 -3.02,-3.69 -0.49,-1.88 0,-4.24 1.39,-7.09 0.73,-1.45 2.3,-4.6 4.78,-9.56 2.49,-4.97 5.45,-10.97 8.91,-17.93 3.45,-7.03 7.14,-14.6 11.14,-22.71 4.06,-8.18 7.87,-15.93 11.57,-23.26 3.63,-7.32 7.02,-13.93 10.11,-19.68 3.09,-5.81 5.33,-9.99 6.72,-12.6 -2.6,-2.36 -4.36,-4.11 -5.33,-5.14 -0.9,-1.09 -1.63,-3.4 -2.12,-6.97 -0.48,-3.03 0.25,-7.08 2.12,-12.05 1.94,-4.97 4.42,-9.75 7.45,-14.35 3.09,-4.61 6.54,-8.6 10.3,-11.87 3.81,-3.33 7.45,-4.97 11.02,-4.97 6.6,0 11.27,2.12 13.99,6.36 2.73,4.24 4.36,8.66 4.78,13.14 0.49,3.09 0.25,6.97 -0.66,11.69 -0.97,4.72 -2.73,9.02 -5.33,12.78 0.73,0.48 1.63,1.03 2.85,1.63 1.15,0.55 3.08,0.85 5.69,0.85 3.75,0 6.42,-0.24 7.93,-0.73 1.58,-0.42 4,-0.66 7.27,-0.66 4.06,0 7.39,0.97 9.99,3.03 2.55,1.99 4.73,4.48 6.36,7.45 1.64,2.9 2.91,6.11 3.7,9.56 0.84,3.4 1.39,6.54 1.63,9.39 0.73,5.94 -0.85,12.05 -4.6,18.47 -3.82,6.36 -8.42,13.33 -13.87,20.9 -3.27,4.78 -6.6,10.05 -9.93,15.98 -3.33,5.94 -4.73,11.27 -4.24,15.99 0.48,3.09 1.27,5.57 2.48,7.45 1.15,1.88 4.48,2.85 9.93,2.85 4,0 8.48,-1.52 13.33,-4.42 4.84,-2.97 9.81,-6.79 14.89,-11.39 5.09,-4.6 10.12,-9.69 15.08,-15.26 4.97,-5.57 9.57,-11.02 13.81,-16.29 4.3,-5.33 7.88,-10.11 10.84,-14.41 2.97,-4.24 5.15,-7.33 6.54,-9.21 1.21,-1.88 2.73,-3.21 4.67,-3.94 1.87,-0.66 3.51,-0.66 4.96,0 1.4,0.73 2.3,2.18 2.61,4.3 0.36,2.12 -0.49,4.97 -2.61,8.48 -1.45,2.36 -3.87,6.18 -7.32,11.39 -3.4,5.21 -7.58,10.96 -12.42,17.38 -4.85,6.36 -10.24,12.96 -16.11,19.68 -5.93,6.78 -12.11,12.9 -18.65,18.47 -6.48,5.57 -13.02,10.12 -19.5,13.63 -6.54,3.57 -12.72,5.33 -18.66,5.33 -6.11,0 -11.2,-1.15 -15.26,-3.51 -3.99,-2.37 -7.27,-5.27 -9.75,-8.73 -2.48,-3.39 -4.24,-7.2 -5.33,-11.32 -1.03,-4.18 -1.45,-7.99 -1.21,-11.57 0.24,-2.84 0.97,-5.81 2.3,-9.02 1.27,-3.21 2.85,-6.54 4.61,-9.93 1.75,-3.46 3.69,-6.85 5.69,-10.3 2,-3.45 3.81,-6.78 5.51,-10.11 4,-6.85 7.27,-12.72 9.75,-17.57 2.48,-4.84 3.69,-8.96 3.69,-12.23 0,-2.12 -0.48,-4.06 -1.39,-5.69 -0.97,-1.64 -2.48,-2.48 -4.6,-2.48 -1.46,0 -2.42,0.06 -3.03,0.18 -0.61,0.12 -1.21,0.18 -1.76,0.18 -0.6,0 -1.45,0.06 -2.48,0.18 -1.09,0.12 -2.66,0.18 -4.84,0.18 -3.03,0 -5.64,-0.48 -7.82,-1.45 -2.12,-0.91 -4.11,-1.64 -5.99,-2.12 -0.97,1.63 -3.09,5.21 -6.42,10.66 -3.27,5.45 -7.15,11.81 -11.51,19.14 -4.36,7.32 -8.96,15.01 -13.87,23.07 -4.84,8.05 -9.38,15.56 -13.62,22.53 -4.24,6.96 -7.88,12.9 -10.84,17.74 -2.97,4.85 -4.79,7.75 -5.52,8.72zm221.48 -10.29c7.33,0 15.44,-2.91 24.28,-8.72 8.91,-5.82 17.57,-12.6 25.93,-20.41 8.41,-7.81 16.1,-15.75 23.07,-23.92 6.96,-8.18 12.23,-14.72 15.81,-19.69 2.12,-3.08 4.11,-4.9 5.99,-5.51 1.94,-0.6 3.33,-0.3 4.3,0.85 0.91,1.21 1.27,3.03 1.03,5.51 -0.24,2.48 -1.27,5.27 -3.15,8.36 -1.69,2.85 -4.48,6.9 -8.36,12.23 -3.93,5.33 -8.54,11.15 -13.86,17.38 -5.27,6.3 -11.33,12.66 -18.05,19.2 -6.78,6.48 -13.81,12.42 -21.14,17.75 -7.33,5.27 -14.9,9.69 -22.71,13.08 -7.81,3.45 -15.5,5.15 -23.07,5.15 -10.42,0 -19.08,-1.94 -26.1,-5.82 -6.97,-3.94 -12.54,-8.96 -16.66,-15.08 -4.12,-6.18 -7.02,-12.96 -8.72,-20.41 -1.64,-7.45 -2.48,-14.84 -2.48,-22.22 0,-7.33 1.69,-16.42 4.96,-27.32 3.33,-10.84 8.24,-21.31 14.78,-31.37 6.48,-10.05 14.72,-18.71 24.65,-25.92 9.93,-7.21 21.62,-10.84 35.12,-10.84 7.57,0 13.99,2.61 19.32,7.81 5.33,5.21 7.88,12.3 7.63,21.32 0,4.24 -0.66,8.42 -2.12,12.6 -1.39,4.12 -3.33,7.81 -5.69,10.96 -2.36,3.21 -5.15,5.75 -8.3,7.63 -3.2,1.94 -6.72,2.85 -10.47,2.85 -3.09,0 -5.39,-1.09 -6.91,-3.33 -1.57,-2.31 -2.48,-4.85 -2.84,-7.82 -0.37,-2.96 -0.37,-5.87 0,-8.72 0.36,-2.84 0.72,-4.72 1.21,-5.69 1.21,-1.64 2.48,-2.79 3.94,-3.51 1.39,-0.73 3.02,-1.58 4.96,-2.49 1.39,-0.72 2.54,-1.75 3.33,-3.21 0.85,-1.39 1.27,-2.96 1.27,-4.6 0,-1.63 -0.48,-3.09 -1.45,-4.24 -0.91,-1.21 -2.48,-1.81 -4.6,-1.81 -2.12,0 -5.94,1.75 -11.51,5.14 -5.57,3.46 -11.26,8.54 -17.02,15.26 -5.81,6.79 -10.96,15.21 -15.44,25.38 -4.54,10.17 -6.9,21.98 -7.15,35.49 -0.18,7.81 0.85,14.17 3.21,19.2 2.37,4.96 5.33,8.84 8.91,11.69 3.51,2.84 7.44,4.84 11.68,5.99 4.24,1.21 8.42,1.82 12.42,1.82zm66.37 6.36c10.42,-43.73 18.77,-78.91 25.01,-105.38 6.3,-26.53 11.09,-46.75 14.42,-60.68 3.75,-16.54 6.36,-28.04 7.75,-34.4 0.72,-4.54 1.33,-8.9 1.81,-13.14 0.49,-3.82 0.67,-7.7 0.67,-11.69 0,-4.06 -0.3,-7.69 -1.03,-11.02 1.88,-1.22 3.94,-2.12 6.18,-2.85 2.3,-0.73 4.48,-1.33 6.6,-1.76 2.6,-0.72 5.21,-1.33 7.81,-1.81 2.61,-0.43 4.97,-0.67 7.09,-0.67 1.88,0 3.63,0.18 5.33,0.48 1.63,0.37 2.72,1.16 3.21,2.37 1.39,1.15 2.06,3.51 1.94,7.08 -0.13,3.51 -0.43,7.21 -0.91,10.96 -0.91,4.55 -2,9.39 -3.21,14.6 -2.85,10.17 -6.73,24.83 -11.69,43.97 -4.24,16.35 -9.99,38.57 -17.2,66.74 -7.21,28.16 -16.29,63.65 -27.13,106.46 -1.21,1.15 -2.61,2 -4.3,2.49 -1.64,0.42 -3.15,0.66 -4.6,0.66 -1.64,0 -3.46,-0.12 -5.33,-0.36 -1.64,-0.42 -3.27,-1.15 -4.97,-2.12 -1.39,-0.91 -2.85,-2.18 -4.24,-3.69 -1.45,-1.58 -2.48,-3.64 -3.21,-6.24zm189.86 -50.75c-2.36,9.02 -5.51,17.38 -9.56,25.19 -4,7.81 -8.79,14.6 -14.36,20.23 -5.57,5.69 -11.81,10.11 -18.83,13.32 -6.97,3.21 -14.6,4.79 -22.89,4.79 -9.69,0 -17.33,-2.06 -22.9,-6.18 -5.51,-4.18 -9.69,-9.33 -12.41,-15.44 -2.73,-6.18 -4.36,-12.9 -4.97,-20.23 -0.54,-7.33 -0.85,-14.23 -0.85,-20.59 0,-4.48 0.55,-9.45 1.58,-14.9 1.09,-5.45 2.54,-11.02 4.42,-16.72 1.94,-5.63 4.36,-11.32 7.27,-17.01 2.96,-5.7 6.48,-10.91 10.47,-15.63 1.46,-4 3.64,-7.57 6.61,-10.6 2.96,-3.09 6.35,-5.63 10.29,-7.63 3.88,-2.06 8.06,-3.57 12.6,-4.66 4.48,-1.03 8.84,-1.58 13.08,-1.58 0.73,0 1.39,0.12 2,0.37 0.54,0.24 1.21,0.48 1.94,0.72 3.08,0.25 6.9,1.4 11.5,3.52 4.67,2.12 9.15,5.33 13.51,9.57 4.36,4.3 8.11,9.69 11.2,16.17 3.03,6.48 4.6,14.35 4.6,23.61 0,1.88 -0.12,4.18 -0.36,6.91 -0.24,2.72 -0.48,5.02 -0.73,6.9 5.45,-2.12 11.15,-4.72 17.02,-7.81 5.94,-3.03 11.69,-6.3 17.26,-9.75 5.51,-3.39 10.66,-6.9 15.38,-10.48 4.79,-3.51 8.54,-6.72 11.39,-9.57 2.36,-2.12 4.36,-3.33 6.06,-3.51 1.63,-0.24 2.78,0.18 3.51,1.39 0.73,1.22 0.85,2.85 0.36,4.97 -0.48,2.12 -1.75,4.48 -3.87,7.09 -1.22,1.45 -4.24,4.23 -9.09,8.53 -4.84,4.24 -10.6,8.85 -17.2,13.81 -6.6,4.97 -13.87,9.81 -21.62,14.6 -7.81,4.72 -15.26,8.23 -22.41,10.6zm-59.95 -53.9c-0.73,2.12 -1.03,4.36 -1.03,6.72 0,3.81 0.18,7.75 0.66,11.87 0.49,4.18 1.7,7.87 3.58,11.2 1.88,3.33 4.9,6.06 9.02,8.36 4.18,2.24 9.87,3.33 17.2,3.33 1.21,0 2.42,-0.06 3.57,-0.18 1.22,-0.12 2.37,-0.3 3.58,-0.48 0.66,-3.09 1.33,-5.88 1.94,-8.36 0.6,-2.49 0.9,-4.67 0.9,-6.6 0.43,-4.49 0.43,-9.09 0,-13.81 -0.48,-4.73 -1.39,-9.09 -2.66,-12.96 -1.33,-3.88 -2.97,-7.09 -4.97,-9.57 -2.06,-2.48 -4.48,-3.76 -7.33,-3.76 -4.48,0 -8.78,1.28 -12.89,3.76 -4.18,2.48 -8,5.93 -11.57,10.48zm-22.71 62.44c0,4.24 0.24,8.47 0.72,12.59 0.49,4.12 1.4,7.82 2.85,11.02 1.39,3.15 3.27,5.76 5.69,7.82 2.37,2 5.39,2.96 9.21,2.96 4.24,0 8.17,-0.96 11.69,-2.96 3.57,-2.06 6.78,-4.67 9.57,-7.82 2.84,-3.2 5.39,-6.9 7.63,-11.02 2.24,-4.12 4.24,-8.48 5.87,-12.96 -1.63,0.24 -3.27,0.43 -4.78,0.55 -1.52,0.12 -3.27,0.18 -5.15,0.18 -8.96,0 -16.72,-2.67 -23.26,-8 -6.48,-5.32 -11.5,-12.11 -15.08,-20.4 -1.39,4.96 -2.6,9.81 -3.51,14.53 -0.97,4.72 -1.45,9.27 -1.45,13.51zm180.96 35.85c7.33,0 15.44,-2.91 24.28,-8.72 8.91,-5.82 17.57,-12.6 25.93,-20.41 8.41,-7.81 16.1,-15.75 23.07,-23.92 6.96,-8.18 12.23,-14.72 15.81,-19.69 2.12,-3.08 4.11,-4.9 5.99,-5.51 1.94,-0.6 3.33,-0.3 4.3,0.85 0.91,1.21 1.27,3.03 1.03,5.51 -0.24,2.48 -1.27,5.27 -3.15,8.36 -1.69,2.85 -4.48,6.9 -8.36,12.23 -3.93,5.33 -8.54,11.15 -13.86,17.38 -5.27,6.3 -11.33,12.66 -18.05,19.2 -6.78,6.48 -13.81,12.42 -21.14,17.75 -7.33,5.27 -14.9,9.69 -22.71,13.08 -7.81,3.45 -15.5,5.15 -23.07,5.15 -10.42,0 -19.08,-1.94 -26.1,-5.82 -6.97,-3.94 -12.54,-8.96 -16.66,-15.08 -4.12,-6.18 -7.02,-12.96 -8.72,-20.41 -1.64,-7.45 -2.48,-14.84 -2.48,-22.22 0,-7.33 1.69,-16.42 4.96,-27.32 3.33,-10.84 8.24,-21.31 14.78,-31.37 6.48,-10.05 14.72,-18.71 24.65,-25.92 9.93,-7.21 21.62,-10.84 35.12,-10.84 7.57,0 13.99,2.61 19.32,7.81 5.33,5.21 7.88,12.3 7.63,21.32 0,4.24 -0.66,8.42 -2.12,12.6 -1.39,4.12 -3.33,7.81 -5.69,10.96 -2.36,3.21 -5.15,5.75 -8.3,7.63 -3.2,1.94 -6.72,2.85 -10.47,2.85 -3.09,0 -5.39,-1.09 -6.91,-3.33 -1.57,-2.31 -2.48,-4.85 -2.84,-7.82 -0.37,-2.96 -0.37,-5.87 0,-8.72 0.36,-2.84 0.72,-4.72 1.21,-5.69 1.21,-1.64 2.48,-2.79 3.94,-3.51 1.39,-0.73 3.02,-1.58 4.96,-2.49 1.39,-0.72 2.54,-1.75 3.33,-3.21 0.85,-1.39 1.27,-2.96 1.27,-4.6 0,-1.63 -0.48,-3.09 -1.45,-4.24 -0.91,-1.21 -2.48,-1.81 -4.6,-1.81 -2.12,0 -5.94,1.75 -11.51,5.14 -5.57,3.46 -11.26,8.54 -17.02,15.26 -5.81,6.79 -10.96,15.21 -15.44,25.38 -4.54,10.17 -6.9,21.98 -7.15,35.49 -0.18,7.81 0.85,14.17 3.21,19.2 2.37,4.96 5.33,8.84 8.91,11.69 3.51,2.84 7.44,4.84 11.68,5.99 4.24,1.21 8.42,1.82 12.42,1.82zm253.75 -58.56c-5.45,8.96 -11.69,18.28 -18.65,27.85 -6.97,9.57 -14.36,18.35 -22.17,26.29 -7.81,7.87 -15.87,14.47 -24.1,19.68 -8.3,5.21 -16.6,7.81 -24.89,7.81 -8.24,0 -14.24,-2.78 -17.87,-8.36 -3.69,-5.57 -5.39,-11.74 -5.15,-18.65 0,-3.03 0.3,-5.75 0.85,-8.11 0.61,-2.43 1.27,-4.55 1.94,-6.42 0.72,-1.88 1.51,-3.82 2.36,-5.88 0.79,-2 1.57,-4.3 2.3,-6.9 0.91,-3.09 0.97,-5.88 0.18,-8.36 -0.85,-2.48 -1.87,-4.66 -3.03,-6.54 -2.11,2.36 -4.54,4.42 -7.26,6.24 -2.73,1.75 -6.12,2.6 -10.12,2.6 -2.84,0 -5.45,-1.33 -7.81,-4.06 -2.36,-2.72 -3.57,-6.05 -3.57,-10.11 0,-3.33 0.79,-5.99 2.3,-8.18 1.57,-2.11 3.33,-3.75 5.33,-4.96 2,-1.15 4.12,-2 6.24,-2.48 2.12,-0.49 3.87,-0.67 5.33,-0.67 0.66,0 2.18,0.12 4.42,0.3 2.24,0.24 4.66,0.61 7.26,1.09 8.54,-6.84 14.6,-13.08 18.29,-18.65 3.64,-5.51 3.94,-10.54 0.85,-15.08 -1.88,-3.03 -4.24,-4.66 -7.08,-4.78 -2.85,-0.13 -5.82,0.6 -8.85,2.12 -3.08,1.57 -6.11,3.51 -9.08,5.87 -2.97,2.36 -5.57,4.6 -7.99,6.72 -4.73,4.79 -10,10.36 -15.75,16.9 -5.81,6.48 -10.6,11.87 -14.41,16.11 -1.64,7.14 -3.27,14.59 -4.97,22.41 -1.39,6.84 -2.97,14.59 -4.78,23.19 -1.76,8.66 -3.58,17.56 -5.52,26.83 -1.39,0.67 -2.84,1.21 -4.42,1.57 -1.51,0.37 -2.9,0.67 -4.05,0.91 -1.46,0.25 -2.85,0.37 -4.24,0.37 -1.94,0 -3.7,-0.06 -5.33,-0.19 -1.7,-0.12 -3.03,-0.72 -4.12,-1.81 -1.03,-1.03 -1.64,-2.79 -1.76,-5.15 -0.12,-2.36 0.55,-5.63 1.94,-9.93 1.88,-6.12 4.24,-14.36 7.09,-24.65 2.84,-10.3 5.81,-21.56 8.9,-33.85 3.09,-12.36 6.18,-25.14 9.39,-38.52 3.21,-13.39 6.23,-26.16 9.02,-38.34 2.85,-12.17 5.27,-23.19 7.33,-33 2,-9.81 3.45,-17.57 4.42,-23.26 0.73,-6.12 1.39,-12.05 2.12,-17.74 0.48,-4.73 0.79,-9.39 0.91,-13.99 0.12,-4.61 -0.19,-8.12 -0.91,-10.48 1.21,-1.21 2.84,-2.24 4.96,-3.21 2.12,-0.91 4.49,-1.64 7.09,-2.12 2.6,-0.73 5.69,-1.27 9.27,-1.76 3.99,-0.48 7.38,-0.6 10.11,-0.36 2.73,0.24 4.66,1.39 5.81,3.57 1.46,2.37 1.76,6.3 0.91,11.87 -0.85,5.57 -2.54,13.33 -5.15,23.26 -3.33,12.78 -6.66,24.41 -10.11,34.94 -3.45,10.54 -6.72,20.41 -9.93,29.62 -3.21,9.2 -6.3,18.17 -9.21,26.77 -2.96,8.66 -5.63,17.5 -7.99,26.46 4.72,-6.84 10.66,-14.11 17.74,-21.8 7.09,-7.69 15.14,-14.05 24.11,-19.02 9.44,-4.96 17.26,-7.45 23.43,-7.45 7.57,0 13.03,2.55 16.3,7.63 3.33,5.09 4.84,11.09 4.66,17.93 -0.24,5.45 -1.64,10.48 -4.12,15.08 -2.48,4.6 -5.51,8.84 -9.02,12.78 -3.58,3.88 -7.33,7.27 -11.39,10.11 -4,2.85 -7.45,5.21 -10.29,7.09 3.33,1.88 6.23,4.42 8.72,7.63 2.48,3.21 3.57,7.15 3.39,11.87 -0.24,6.42 -1.52,12.05 -3.76,16.9 -2.24,4.84 -3.39,9.26 -3.39,13.26 0.24,3.09 0.91,5.33 2,6.78 1.03,1.4 3.33,2.12 6.9,2.12 6.36,0 13.09,-2.72 20.05,-8.17 6.96,-5.45 13.57,-11.69 19.68,-18.78 6.18,-7.14 11.81,-14.17 17.02,-21.13 5.21,-6.97 9.27,-12.12 12.11,-15.45 4,-4.24 7.39,-5.39 10.12,-3.39 2.66,2.06 2.42,5.75 -0.91,11.21z"/>
 </g>
</svg>
