<?xml version="1.0" encoding="UTF-8"?>
<!DOCTYPE svg PUBLIC "-//W3C//DTD SVG 1.1//EN" "http://www.w3.org/Graphics/SVG/1.1/DTD/svg11.dtd">
<!-- Creator: CorelDRAW 2019 (64 Bit) -->
<svg xmlns="http://www.w3.org/2000/svg" xml:space="preserve" width="15.2398mm" height="5.0798mm" version="1.1" style="shape-rendering:geometricPrecision; text-rendering:geometricPrecision; image-rendering:optimizeQuality; fill-rule:evenodd; clip-rule:evenodd"
viewBox="0 0 1523.98 507.98"
 xmlns:xlink="http://www.w3.org/1999/xlink"
 xmlns:xodm="http://www.corel.com/coreldraw/odm/2003">
 <defs>
  <style type="text/css">
   <![CDATA[
    .fil0 {fill:#FEFEFE}
    .fil1 {fill:#FEFEFE;fill-rule:nonzero}
   ]]>
  </style>
 </defs>
 <g id="Camada_x0020_1">
  <metadata id="CorelCorpID_0Corel-Layer"/>
  <g id="_2169831349792">
   <path class="fil0" d="M1338.58 305.43c-6.43,2.83 -16.84,-0.13 -23.26,2.73 5.9,0.82 20.14,-0.65 23.23,3.05 2.58,1.24 1.63,-2.1 1.49,2.61 -0.11,3.59 0.4,0.96 -1.46,1.91 -1.18,1.63 2.76,1.12 -2.78,1.64 -11.69,-0.04 -64.09,-1.34 -71.18,1.22 6.98,2.53 67.11,4.52 73.57,6.97l-1.87 7.71c1.26,-1.44 0.85,-0.54 1.93,-2.18 2.73,-4.17 1.87,-3.76 1.76,-7.97l-20.85 -1.9c7.34,-1.21 17.41,-0.66 22.91,-1.99 1.39,-4.23 1.57,-5.42 0.58,-9.72 -4.22,-1.3 -11.01,-3.6 -14.17,-0.81l12.57 -1.79c1.6,-4.45 0.14,-13.96 -4.9,-16.57 0.78,3.84 1.38,4.45 2.44,7.69l-0.01 7.4z"/>
   <path class="fil0" d="M1116.8 177.84c14.21,-2.4 39.84,4.55 54.78,4.38 2.23,3.27 0.7,7.36 -0.09,12.09 -9.57,56.91 13.71,14.15 1.35,1.03 2.73,-10.75 3.18,-12.13 -1.26,-13.12l-3.3 -2.27c8.72,-1.72 9.11,-2.98 12.45,-10.17 -4.01,-3.43 -10.91,-2.83 -16.3,-2.54 2.99,1.56 19.21,0.5 11.7,7.33 -4.26,3.87 -47.72,-0.86 -66.52,2.65l7.19 0.62z"/>
   <path class="fil0" d="M1310.07 72.5c-11.29,-1.3 -78.55,-1.63 -85.37,2.55 11.24,1.66 28.79,4.6 40.76,5.41 10.27,0.7 35.82,-1.52 42.96,4.58 1.27,1.97 3.92,11.04 5.88,14.61l15.27 25.27c3.05,5.43 7.51,8.6 4.26,14.86 -5.46,4.62 -19.86,3.16 -27.56,3.1 -3.36,-3.74 -10.95,-9.1 -15.72,-10.68 2.24,2.59 14.55,12.06 17.18,12.43 0.28,0.04 24.87,-2.01 25.62,-2.18 5.25,-7.3 4.01,-6.74 -0.04,-13.56 -6.03,-10.14 -16.57,-27.14 -21.35,-37.36 -1.54,-3.29 -1.13,-6.61 -2.87,-9.51l-69.54 -7.06c18.7,-4.14 63.06,3.76 70.52,-2.46l1.8 -6c-11.98,-3.72 -33.37,-4.57 -45.77,-6.04 8.78,-0.62 46.37,0.18 51.08,-1.34 8.73,-2.81 22.77,-18.1 32.52,-21.35 9.59,-1.72 11.59,-15.39 33,-6.58l-6.13 -5.03c-11,-1.3 -13.31,0.08 -21.73,5.31l-31.68 22.54c-8.06,6.07 -13.26,4.04 -23.52,4.04 -9.1,-0.01 -44.99,-1.18 -50.83,2.36 6.53,3.05 49.74,5.92 60.91,6.72l0.35 5.37z"/>
   <path class="fil0" d="M1268.85 292.13c-2.7,2.88 -7.03,4.32 -11.24,3.33 -9.52,5.79 -25.49,2.03 -37.06,1.12 22.06,9.72 51.29,-1.26 69.67,-12.18 16.16,-9.6 11.96,-12.18 30.72,-5.41 10.01,3.61 14.9,16.35 17.64,26.44 -16.79,-2.54 -35.91,1.05 -51.86,2.35 6.15,3.3 43.43,4.24 51.83,3.43l0.03 4.52c-10.13,-2.33 -86.65,-1.24 -93.46,2.86 10.21,6.01 79.07,3.75 89.35,9.02 0.82,5.85 -6.66,17.94 -5.08,21.52l11.71 2.42c1.84,5.21 5.53,20.54 12.78,8.47 -12.49,3.85 -4.83,-9.14 -15.85,-11.37 -5.54,-1.13 -6.86,0.34 -5.22,-6.19 0.58,-2.29 2.54,-7.49 3.51,-9.19l1.87 -7.71c-6.46,-2.45 -66.59,-4.44 -73.57,-6.97 7.09,-2.56 59.49,-1.26 71.18,-1.22 5.54,-0.52 1.6,-0.01 2.78,-1.64 1.86,-0.95 1.35,1.68 1.46,-1.91 0.14,-4.71 1.09,-1.37 -1.49,-2.61 -3.09,-3.7 -17.33,-2.23 -23.23,-3.05 6.42,-2.86 16.83,0.1 23.26,-2.73l0.01 -7.4c-1.06,-3.24 -1.66,-3.85 -2.44,-7.69 -2.42,-3.87 -3.33,-7.01 -7.51,-9.05l-1.96 -1.02c-2.28,0.87 -1.62,0.99 -0.93,-1.37 -2.27,0.89 -2.07,1.42 -1.25,-0.9 -17.31,-2.49 -9.88,-10.4 -29.61,1.96 -4.16,2.61 -22.49,12.56 -26.04,12.17z"/>
   <path class="fil0" d="M1427.81 339.21c8.88,-1.01 11.57,-3.78 19.19,-6.54 11.55,-4.19 15.37,-4.09 16.32,-8.27 -8.48,-5.39 -43.43,1.47 -56.83,-2.98 -1.24,-3.18 3.44,-9.01 4.66,-12.45 5.43,-15.36 4.3,-32.63 -6.16,-46.11 -13.07,-16.84 -37.17,-20.43 -50.76,-25.91 0.32,-2.95 6.68,-12.68 8.07,-17.67 12.2,8.46 25.72,11.89 40.27,10.68 8.01,-0.66 7.38,-1.54 9.48,-8.43 5.23,-0.98 10.89,-1.64 16.38,-2.08 8.99,-0.71 9.37,-2.39 16.03,-3.63 12.97,9.61 3.69,2.94 14.19,8.08 5.2,2.54 14.06,4.05 17.08,-2.22 -9.71,0.58 -6.01,2.85 -17.38,-0.13 -6.54,-1.71 -7.87,-5.37 -12.23,-6.8 -6.97,-2.3 -8.39,1.99 -15.39,2.69 -6.2,0.61 -12.79,0.07 -19.1,0.71 -2.77,3.81 -2.4,8.47 -8.19,9.5 -18.56,3.33 -31.03,-6.92 -40.37,-10.21 -3.86,2.17 -11.61,17.39 -11.67,20.8 5.71,3.32 15.09,4.32 28.42,10.44 9.96,4.57 15.75,6.76 22.65,15.65 20.27,26.11 -0.05,51.3 0.43,58.26 10.81,6.46 41.51,0.71 54.62,3.1 -2.57,0.98 -5.13,1.95 -7.7,2.93 -11.16,5.55 -15.5,3.54 -22.01,10.59z"/>
   <path class="fil0" d="M1096.49 255.65l40.92 3.08c-4.25,6.93 -12.53,4.5 -20.83,4.5 -12.82,-0.01 -62.88,-1.36 -68.44,2.61 8.6,3.86 70.83,4.64 75.55,7.76 -1.2,7.64 -14.28,13.21 -14.5,20.81 4.83,0.72 22.65,-10.75 28.39,-13.55 8.64,-4.21 21.78,-9.34 30.8,-11.91 19.41,9.9 25.2,25.21 52.17,27.63 11.57,0.91 27.54,4.67 37.06,-1.12 4.21,0.99 8.54,-0.45 11.24,-3.33 3.55,0.39 21.88,-9.56 26.04,-12.17 19.73,-12.36 12.3,-4.45 29.61,-1.96 -0.82,2.32 -1.02,1.79 1.25,0.9 -0.69,2.36 -1.35,2.24 0.93,1.37l1.96 1.02c0,-2.34 0.46,-1.73 -1.96,-1.02 0.64,-2.26 1.25,-2.09 -0.93,-1.37 0.82,-2.32 1.02,-1.79 -1.25,-0.9 -2.09,-2.83 -11.33,-6.15 -15.08,-6.75 -4.9,-0.8 -9.36,3.67 -13.61,6.13 -5.38,3.11 -24.87,12.12 -26.96,14.75 -4.59,-0.24 -8.6,0.25 -11.24,3.33 -34.53,-2.58 -43.42,4.43 -73.75,-18.05 -17.71,-13.13 -8.97,-12.44 -30.65,-6.59 -11.06,2.99 -24.52,14.26 -31.22,12.6 1.03,-5.95 6.37,-6.91 6.18,-11.4 -3.46,-2.9 -48.54,-6.57 -55.26,-6.14 12.59,0.19 25.41,-0.1 38.02,-0.19 9.34,-0.07 27.65,3.67 29.37,-8.08 -4.5,-3.33 -5.3,-1.61 -10.17,-2.97l13.66 -0.7c2.11,0.93 7.25,1.68 10.79,-3.86l6.52 -6.3 3.07 -4.86c8.64,-10.49 9.06,-12.89 6.86,-28.84 -1.05,-7.62 -0.81,-8.25 0.46,-15.77 0.79,-4.73 2.32,-8.82 0.09,-12.09 -14.94,0.17 -40.57,-6.78 -54.78,-4.38 6.7,2.97 44.34,4.18 54.39,4.95 0.79,6.02 -1.26,13.6 -1.25,20.54 -17.26,74.3 -27.32,33.9 -73.45,52.32z"/>
   <path class="fil0" d="M1271.31 252.89c-37.8,22.56 -100.06,0.53 -89.65,-62.97 4.22,-26.56 16.49,-0.88 35.34,-19.57 17.01,-16.87 1.15,-23.9 20.47,-23.41 20.24,0.51 32.32,3.64 48.49,24.94 3.92,5.16 7.93,13.32 9.8,19.5 6.51,21.59 -6.58,49.28 -24.45,61.51zm-92.43 -36.57c5.46,33.29 39.94,55.94 72.87,47.57 49.63,-12.62 67.31,-75.02 20.47,-110.01 -7.68,-5.74 -12.05,-6.79 -20.91,-9.58 -5.05,-1.59 -22.92,-3.01 -26.8,0.87 -2.3,2.3 -0.49,12.88 -8.27,22.33 -14.08,17.12 -29.88,0.34 -34.62,10.2 -3.59,4.11 -4.89,25 -2.74,38.62z"/>
   <path class="fil0" d="M1310.07 72.5c-7.46,6.22 -51.82,-1.68 -70.52,2.46l69.54 7.06c1.74,2.9 1.33,6.22 2.87,9.51 4.78,10.22 15.32,27.22 21.35,37.36 4.05,6.82 5.29,6.26 0.04,13.56 -0.75,0.17 -25.34,2.22 -25.62,2.18 -34.13,-24.79 -5.43,13.77 13.34,-0.26 4.62,-0.21 9.63,1.14 13.81,0.21l5.22 -8.89c-3.81,-8.58 -18.32,-29.8 -23.7,-39.68 -2.66,-4.87 -4.37,-13.51 -5.67,-15.67 -5.28,-2.47 -12.71,0.71 -18.23,-2.6l17.84 -1.61c0.98,-1.58 2.36,-4.21 3.05,-5.71 2.28,-5.01 0.33,-3.83 3.02,-7.37 0.87,-1.15 9.16,-6.62 11.07,-8.15 5.9,-4.74 18.38,-11.67 22.22,-17.13 -9.75,3.25 -23.79,18.54 -32.52,21.35 -4.71,1.52 -42.3,0.72 -51.08,1.34 12.4,1.47 33.79,2.32 45.77,6.04l-1.8 6z"/>
   <path class="fil0" d="M1216.24 167.5c7.78,-9.45 5.97,-20.03 8.27,-22.33 3.88,-3.88 21.75,-2.46 26.8,-0.87 8.86,2.79 13.23,3.84 20.91,9.58 46.84,34.99 29.16,97.39 -20.47,110.01 -88.61,10.1 -78.8,-92.3 -64.41,-89.32 6.51,1.34 19.96,5.71 28.9,-7.07zm133.46 -129.73c-3.84,5.46 -16.32,12.39 -22.22,17.13 -1.91,1.53 -10.2,7 -11.07,8.15 -2.69,3.54 -0.74,2.36 -3.02,7.37 -0.69,1.5 -2.07,4.13 -3.05,5.71l-17.84 1.61c5.52,3.31 12.95,0.13 18.23,2.6 1.3,2.16 3.01,10.8 5.67,15.67 5.38,9.88 19.89,31.1 23.7,39.68l-5.22 8.89c-4.18,0.93 -9.19,-0.42 -13.81,-0.21 -15.33,0.7 -8.45,8.98 -22.55,-5.46 -16.32,-12.21 -12.44,0.24 -31.23,-6.09 -41.55,-14 -31.97,-2.2 -54.59,-3.96 -7.07,-0.55 -8.3,-4.26 -19.28,-2.24 -4.83,0.89 -8.9,4.39 -12.62,7.58 -10.62,9.1 -7.02,18.1 -5.43,24.89 0.45,1.94 0.75,3.7 0.49,5.23l-11.43 2.92c5.39,-0.29 12.29,-0.89 16.3,2.54 -3.34,7.19 -3.73,8.45 -12.45,10.17l3.3 2.27c4.44,0.99 3.99,2.37 1.26,13.12 -3.6,12.91 0.55,50.94 -29.05,58.6l-13.66 0.7c4.87,1.36 5.67,-0.36 10.17,2.97 -1.72,11.75 -20.03,8.01 -29.37,8.08 -12.61,0.09 -25.43,0.38 -38.02,0.19 6.72,-0.43 51.8,3.24 55.26,6.14 0.19,4.49 -5.15,5.45 -6.18,11.4 6.7,1.66 20.16,-9.61 31.22,-12.6 21.68,-5.85 12.94,-6.54 30.65,6.59 30.33,22.48 39.22,15.47 73.75,18.05 2.64,-3.08 6.65,-3.57 11.24,-3.33 2.09,-2.63 21.58,-11.64 26.96,-14.75 4.25,-2.46 8.71,-6.93 13.61,-6.13 3.75,0.6 12.99,3.92 15.08,6.75 2.27,-0.89 2.07,-1.42 1.25,0.9 2.18,-0.72 1.57,-0.89 0.93,1.37 2.42,-0.71 1.96,-1.32 1.96,1.02 4.18,2.04 5.09,5.18 7.51,9.05 5.04,2.61 6.5,12.12 4.9,16.57l-12.57 1.79c3.16,-2.79 9.95,-0.49 14.17,0.81 0.99,4.3 0.81,5.49 -0.58,9.72 -5.5,1.33 -15.57,0.78 -22.91,1.99l20.85 1.9c0.11,4.21 0.97,3.8 -1.76,7.97 -1.08,1.64 -0.67,0.74 -1.93,2.18 -0.97,1.7 -2.93,6.9 -3.51,9.19 -1.64,6.53 -0.32,5.06 5.22,6.19 11.02,2.23 3.36,15.22 15.85,11.37 12.54,-3.3 26.03,-4.8 38.12,-9.18 4.66,-1.69 5.7,-1.44 10.02,-2.62l25.79 -9.01c5.02,-4.93 22.37,-9.97 29.71,-13.52 -13.11,-2.39 -43.81,3.36 -54.62,-3.1 -0.48,-6.96 19.84,-32.15 -0.43,-58.26 -6.9,-8.89 -12.69,-11.08 -22.65,-15.65 -13.33,-6.12 -22.71,-7.12 -28.42,-10.44 0.06,-3.41 7.81,-18.63 11.67,-20.8 9.34,3.29 21.81,13.54 40.37,10.21 5.79,-1.03 5.42,-5.69 8.19,-9.5 6.31,-0.64 12.9,-0.1 19.1,-0.71 7,-0.7 8.42,-4.99 15.39,-2.69 4.36,1.43 5.69,5.09 12.23,6.8 11.37,2.98 7.67,0.71 17.38,0.13 5.83,-0.9 13.65,-10.62 15.3,-16.66 4.86,-17.85 -10.89,-37.55 -30,-32.31 -29.44,8.08 -11.51,27.95 -37.12,27.56 -11.02,-0.17 -2,-3.73 -13.43,-4.12 -6.47,-0.21 -7.87,0.89 -14.24,-1.49 -19.88,-7.42 -14.09,-20.33 -33.16,-31.73l6.09 -8.5c15.29,-2.14 14.66,1.56 31.75,-4.41 15.65,-5.45 29.9,-24.84 31.05,-39.44 1.21,-15.44 10.44,-13.82 11.95,-22.17 -11.01,-3.03 -10.41,4.53 -16.51,-9.35 -2.73,-6.24 -8.9,-11.7 -10.13,-15.75 5.31,-10.75 42.09,-19.15 39.32,-34.07 -10.2,-3.56 -35.33,20.6 -47.4,22.77 -5.47,-2.47 -13.5,-15.47 -26.5,-20.82 -21.41,-8.81 -23.41,4.86 -33,6.58z"/>
   <path class="fil1" d="M282.71 88.51c1.29,1.06 1.9,3.24 1.79,6.54 -0.11,3.24 -0.39,6.64 -0.84,10.11 -0.84,4.19 -1.84,8.66 -2.9,13.46 -2.41,9.39 -5.93,22.9 -10.51,40.56 -3.91,15.08 -9.21,35.58 -15.86,61.56 -6.65,25.97 -15.03,58.71 -25.03,98.21 -1.34,1.06 -2.74,1.84 -4.24,2.29 -1.57,0.39 -2.96,0.61 -4.31,0.61 -1.5,0 -3.01,-0.11 -4.58,-0.33 -1.73,-0.4 -3.35,-1.07 -4.91,-1.96 -1.29,-0.84 -2.57,-2.01 -3.91,-3.41 -1.29,-1.45 -2.29,-3.35 -2.96,-5.75 2.4,-9.61 4.69,-19.11 6.87,-28.49 2.18,-9.33 4.19,-17.88 5.92,-25.53 2.18,-8.72 4.24,-17.21 6.2,-25.53 -7.43,0.67 -14.69,1.56 -21.9,2.63 -7.2,1.11 -15.08,3.51 -23.57,7.2 -3.75,1.34 -7.43,2.63 -11.12,3.91 -3.07,1.12 -6.31,2.35 -9.66,3.8 -3.41,1.4 -6.2,2.68 -8.38,3.74l-7.49 23.91c12.63,8.94 22.4,18.1 29.27,27.49 6.87,9.38 11.85,17.99 14.92,25.86 3.69,9.16 5.75,18.1 6.2,26.87 0,9.56 -1.45,19.22 -4.25,28.94 -2.84,9.72 -6.59,18.99 -11.28,27.82 -4.69,8.83 -10.17,17.09 -16.37,24.75 -6.25,7.59 -12.79,14.13 -19.66,19.61 -6.87,5.47 -13.86,9.6 -20.95,12.45 -7.1,2.85 -13.8,3.91 -20.11,3.24 -4.58,-0.44 -8.44,-1.9 -11.45,-4.41 -3.08,-2.51 -5.37,-5.64 -6.87,-9.5 -1.57,-3.8 -2.41,-8.04 -2.63,-12.73 -0.22,-4.7 0.22,-9.33 1.28,-13.91 0.9,-4.58 2.74,-13.13 5.59,-25.53 2.4,-10.51 6.09,-25.7 11.12,-45.7 5.03,-19.94 11.78,-46.53 20.28,-79.66 -2.41,-2.4 -4.08,-4.75 -5.09,-7.04 -0.95,-2.29 -1.67,-4.52 -2.12,-6.7 -0.45,-2.41 -0.45,-4.81 0,-7.21 0.89,-3.07 2.18,-5.92 3.97,-8.55 1.5,-2.4 3.57,-4.86 6.2,-7.37 2.62,-2.46 6.09,-4.8 10.44,-7.04 2.85,-6.98 5.42,-14.3 7.71,-22.07 2.29,-7.76 4.3,-14.8 6.09,-21.11 1.96,-7.43 3.69,-14.86 5.2,-22.24 5.47,-18.54 8.32,-33.68 8.54,-45.36 0.23,-11.67 0,-19.38 -0.67,-23.07 -0.22,-1.51 -0.44,-3.07 -0.67,-4.58 -0.44,-1.34 -0.78,-2.79 -1.11,-4.41 -0.34,-1.62 -0.73,-3.24 -1.18,-4.75 2.4,-1.34 4.53,-2.4 6.37,-3.3 1.9,-0.83 3.46,-1.5 4.75,-1.95 1.56,-0.67 2.96,-1.06 4.3,-1.29 4.97,-1.11 9.72,-1.73 14.19,-1.84 4.53,-0.11 6.98,0.73 7.37,2.46 0.23,1.12 0.51,3.07 0.84,5.92 0.34,2.85 0.5,6.31 0.5,10.45 0,4.19 -0.33,8.82 -1,13.91 -0.67,5.14 -1.84,10.55 -3.58,16.2 -1.56,5.02 -3.63,12.01 -6.25,20.95 -2.4,7.65 -5.53,17.87 -9.5,30.61 -3.91,12.79 -9.05,29.1 -15.36,48.93 5.03,-1.73 10.22,-3.18 15.53,-4.41 5.36,-1.17 10.22,-2.23 14.58,-3.13 5.03,-0.83 9.94,-1.62 14.75,-2.29 5.64,-0.84 10.5,-1.45 14.58,-1.78 4.02,-0.34 7.54,-0.62 10.61,-0.79 2.4,-10.28 4.81,-20.39 7.21,-30.27 2.4,-9.95 4.58,-19.17 6.53,-27.66 1.96,-8.54 3.69,-15.92 5.09,-22.12 1.39,-6.2 2.34,-10.61 2.79,-13.24 0.61,-4.19 1.17,-8.21 1.62,-12.12 0.45,-3.52 0.67,-7.1 0.67,-10.78 0,-3.75 -0.33,-7.1 -1.01,-10.17 1.74,-1.12 3.69,-1.96 5.76,-2.63 2.07,-0.67 4.08,-1.22 6.03,-1.62 2.4,-0.67 4.81,-1.22 7.21,-1.67 2.4,-0.39 4.58,-0.62 6.53,-0.62 1.74,0 3.41,0.17 4.92,0.45 1.51,0.34 2.51,1.06 2.96,2.18zm-119.49 245.46c-1.96,-4.58 -4.25,-9.05 -6.87,-13.4 -2.4,-3.75 -5.31,-7.71 -8.66,-11.96 -3.41,-4.24 -7.37,-8.15 -11.96,-11.62 -3.07,10.89 -5.75,20.95 -8.04,30.11 -2.29,9.16 -4.19,17.26 -5.7,24.25 -1.95,8.04 -3.52,15.36 -4.58,21.9 -1.95,8.32 -4.02,16.47 -6.09,24.57 -2.06,8.05 -3.68,15.31 -4.86,21.74 -1.23,6.48 -1.73,11.62 -1.51,15.58 0.23,3.91 1.62,5.87 4.25,5.87 6.37,0.44 12.96,-2.01 19.83,-7.38 6.87,-5.3 13.13,-12.12 18.83,-20.28 5.64,-8.21 10.33,-17.03 14.07,-26.53 3.69,-9.5 5.54,-18.27 5.54,-26.31 0,-8.94 -1.4,-17.82 -4.25,-26.54zm216.7 -70.38c-2.18,8.32 -5.09,16.03 -8.83,23.23 -3.69,7.21 -8.1,13.47 -13.24,18.66 -5.14,5.25 -10.89,9.33 -17.37,12.29 -6.43,2.96 -13.47,4.42 -21.12,4.42 -8.94,0 -15.98,-1.9 -21.12,-5.7 -5.08,-3.86 -8.93,-8.61 -11.45,-14.25 -2.51,-5.7 -4.02,-11.9 -4.58,-18.66 -0.5,-6.76 -0.78,-13.12 -0.78,-18.99 0,-4.13 0.5,-8.71 1.45,-13.74 1.01,-5.03 2.35,-10.17 4.08,-15.42 1.79,-5.2 4.02,-10.45 6.7,-15.7 2.74,-5.25 5.98,-10.05 9.67,-14.41 1.34,-3.69 3.35,-6.98 6.09,-9.78 2.73,-2.85 5.86,-5.19 9.49,-7.03 3.58,-1.9 7.43,-3.3 11.62,-4.31 4.14,-0.95 8.16,-1.45 12.07,-1.45 0.67,0 1.29,0.11 1.84,0.34 0.51,0.22 1.12,0.44 1.79,0.67 2.85,0.22 6.37,1.28 10.62,3.24 4.3,1.95 8.43,4.91 12.45,8.82 4.03,3.97 7.49,8.94 10.34,14.92 2.79,5.98 4.24,13.24 4.24,21.79 0,1.73 -0.11,3.85 -0.33,6.36 -0.23,2.52 -0.45,4.64 -0.67,6.37 5.03,-1.95 10.28,-4.36 15.7,-7.2 5.47,-2.8 10.78,-5.81 15.92,-9 5.08,-3.13 9.83,-6.37 14.19,-9.66 4.41,-3.24 7.87,-6.2 10.5,-8.83 2.18,-1.95 4.02,-3.07 5.58,-3.24 1.51,-0.22 2.57,0.17 3.24,1.29 0.67,1.11 0.79,2.62 0.34,4.58 -0.45,1.95 -1.62,4.13 -3.58,6.53 -1.11,1.34 -3.91,3.91 -8.38,7.88 -4.46,3.91 -9.77,8.16 -15.86,12.74 -6.09,4.58 -12.79,9.05 -19.94,13.46 -7.21,4.36 -14.08,7.6 -20.67,9.78zm-55.31 -49.72c-0.67,1.95 -0.95,4.02 -0.95,6.2 0,3.52 0.17,7.15 0.62,10.95 0.44,3.85 1.56,7.26 3.29,10.33 1.73,3.07 4.53,5.59 8.33,7.71 3.85,2.07 9.1,3.07 15.86,3.07 1.12,0 2.24,-0.05 3.3,-0.16 1.12,-0.12 2.18,-0.28 3.29,-0.45 0.62,-2.85 1.23,-5.42 1.79,-7.71 0.56,-2.29 0.84,-4.3 0.84,-6.09 0.39,-4.13 0.39,-8.38 0,-12.74 -0.45,-4.35 -1.29,-8.38 -2.46,-11.95 -1.23,-3.58 -2.74,-6.54 -4.58,-8.83 -1.9,-2.29 -4.13,-3.46 -6.76,-3.46 -4.13,0 -8.1,1.17 -11.9,3.46 -3.85,2.29 -7.37,5.48 -10.67,9.67zm-20.95 57.59c0,3.91 0.23,7.82 0.67,11.62 0.45,3.8 1.29,7.21 2.63,10.17 1.28,2.9 3.02,5.31 5.25,7.21 2.18,1.84 4.97,2.73 8.49,2.73 3.91,0 7.54,-0.89 10.78,-2.73 3.3,-1.9 6.26,-4.31 8.83,-7.21 2.63,-2.96 4.97,-6.37 7.04,-10.17 2.07,-3.8 3.91,-7.82 5.42,-11.95 -1.51,0.22 -3.02,0.39 -4.42,0.5 -1.39,0.11 -3.01,0.17 -4.74,0.17 -8.27,0 -15.42,-2.46 -21.46,-7.38 -5.97,-4.91 -10.61,-11.17 -13.91,-18.82 -1.28,4.58 -2.4,9.05 -3.24,13.4 -0.89,4.36 -1.34,8.55 -1.34,12.46zm98.82 42.57c-1.51,2.4 -3.18,3.97 -5.03,4.75 -1.89,0.72 -3.51,0.84 -4.91,0.28 -1.45,-0.51 -2.35,-1.68 -2.79,-3.41 -0.45,-1.73 0,-3.91 1.28,-6.54 0.67,-1.34 2.12,-4.24 4.41,-8.82 2.29,-4.58 5.03,-10.11 8.22,-16.54 3.18,-6.48 6.59,-13.46 10.27,-20.95 3.75,-7.54 7.27,-14.69 10.67,-21.45 3.36,-6.76 6.48,-12.85 9.33,-18.15 2.85,-5.37 4.92,-9.22 6.2,-11.62 -2.4,-2.18 -4.02,-3.8 -4.91,-4.75 -0.84,-1.01 -1.51,-3.13 -1.96,-6.43 -0.44,-2.79 0.23,-6.53 1.96,-11.11 1.79,-4.58 4.08,-9 6.87,-13.24 2.85,-4.25 6.03,-7.94 9.5,-10.95 3.52,-3.07 6.87,-4.58 10.16,-4.58 6.09,0 10.39,1.95 12.91,5.86 2.51,3.91 4.02,7.99 4.41,12.13 0.45,2.84 0.22,6.42 -0.61,10.78 -0.9,4.35 -2.52,8.32 -4.92,11.78 0.67,0.45 1.51,0.95 2.63,1.51 1.06,0.51 2.85,0.78 5.25,0.78 3.46,0 5.92,-0.22 7.32,-0.67 1.45,-0.39 3.68,-0.61 6.7,-0.61 3.74,0 6.81,0.89 9.22,2.79 2.34,1.85 4.35,4.14 5.86,6.87 1.51,2.69 2.68,5.65 3.41,8.83 0.78,3.13 1.28,6.03 1.51,8.66 0.67,5.47 -0.78,11.12 -4.25,17.04 -3.52,5.86 -7.76,12.29 -12.79,19.27 -3.02,4.41 -6.09,9.27 -9.16,14.75 -3.07,5.47 -4.36,10.39 -3.91,14.75 0.44,2.85 1.17,5.14 2.29,6.87 1.06,1.73 4.13,2.62 9.16,2.62 3.69,0 7.82,-1.39 12.29,-4.07 4.47,-2.74 9.05,-6.26 13.74,-10.51 4.69,-4.24 9.33,-8.94 13.91,-14.07 4.58,-5.14 8.83,-10.17 12.74,-15.03 3.97,-4.92 7.26,-9.33 10,-13.3 2.74,-3.91 4.75,-6.76 6.03,-8.49 1.12,-1.73 2.52,-2.96 4.3,-3.63 1.73,-0.61 3.24,-0.61 4.58,0 1.29,0.67 2.13,2.01 2.41,3.97 0.33,1.95 -0.45,4.58 -2.41,7.82 -1.34,2.18 -3.57,5.7 -6.76,10.5 -3.12,4.8 -6.98,10.11 -11.45,16.03 -4.47,5.87 -9.44,11.96 -14.86,18.16 -5.47,6.25 -11.17,11.9 -17.2,17.04 -5.98,5.14 -12.01,9.33 -17.99,12.57 -6.03,3.29 -11.73,4.91 -17.21,4.91 -5.64,0 -10.33,-1.06 -14.07,-3.24 -3.69,-2.18 -6.71,-4.86 -9,-8.04 -2.29,-3.13 -3.91,-6.65 -4.91,-10.45 -0.95,-3.85 -1.35,-7.37 -1.12,-10.67 0.22,-2.62 0.89,-5.36 2.12,-8.32 1.17,-2.96 2.63,-6.04 4.25,-9.16 1.62,-3.19 3.4,-6.32 5.25,-9.5 1.84,-3.19 3.52,-6.26 5.08,-9.33 3.69,-6.31 6.7,-11.73 9,-16.2 2.29,-4.47 3.4,-8.27 3.4,-11.29 0,-1.95 -0.44,-3.74 -1.28,-5.25 -0.9,-1.5 -2.29,-2.29 -4.25,-2.29 -1.34,0 -2.23,0.06 -2.79,0.17 -0.56,0.11 -1.12,0.17 -1.62,0.17 -0.56,0 -1.34,0.05 -2.29,0.17 -1.01,0.11 -2.46,0.16 -4.47,0.16 -2.79,0 -5.2,-0.44 -7.21,-1.34 -1.95,-0.83 -3.8,-1.51 -5.53,-1.95 -0.89,1.51 -2.85,4.8 -5.92,9.83 -3.02,5.03 -6.59,10.89 -10.61,17.65 -4.02,6.76 -8.27,13.86 -12.8,21.29 -4.46,7.43 -8.65,14.35 -12.56,20.78 -3.91,6.42 -7.27,11.9 -10,16.37 -2.74,4.46 -4.42,7.15 -5.09,8.04zm204.29 -9.5c6.76,0 14.25,-2.68 22.4,-8.04 8.21,-5.36 16.2,-11.62 23.91,-18.83 7.77,-7.2 14.86,-14.52 21.28,-22.06 6.43,-7.54 11.29,-13.58 14.58,-18.16 1.96,-2.85 3.8,-4.52 5.54,-5.08 1.78,-0.56 3.07,-0.28 3.96,0.78 0.84,1.12 1.17,2.79 0.95,5.08 -0.22,2.29 -1.17,4.86 -2.9,7.71 -1.57,2.63 -4.14,6.37 -7.71,11.29 -3.63,4.91 -7.88,10.28 -12.8,16.03 -4.86,5.81 -10.44,11.68 -16.64,17.71 -6.26,5.98 -12.74,11.45 -19.5,16.37 -6.76,4.86 -13.74,8.93 -20.95,12.06 -7.2,3.19 -14.3,4.75 -21.28,4.75 -9.61,0 -17.6,-1.79 -24.08,-5.36 -6.42,-3.63 -11.56,-8.27 -15.36,-13.91 -3.8,-5.7 -6.48,-11.96 -8.05,-18.83 -1.5,-6.87 -2.29,-13.68 -2.29,-20.5 0,-6.76 1.57,-15.14 4.58,-25.19 3.08,-10 7.6,-19.67 13.64,-28.94 5.97,-9.27 13.57,-17.26 22.73,-23.91 9.16,-6.65 19.95,-10 32.4,-10 6.99,0 12.91,2.4 17.82,7.21 4.92,4.8 7.27,11.34 7.04,19.66 0,3.91 -0.61,7.77 -1.95,11.62 -1.29,3.8 -3.08,7.21 -5.25,10.11 -2.18,2.96 -4.75,5.31 -7.66,7.04 -2.96,1.79 -6.2,2.63 -9.66,2.63 -2.85,0 -4.97,-1.01 -6.37,-3.08 -1.45,-2.12 -2.29,-4.47 -2.63,-7.2 -0.33,-2.74 -0.33,-5.42 0,-8.05 0.34,-2.62 0.67,-4.36 1.12,-5.25 1.12,-1.51 2.29,-2.57 3.63,-3.24 1.29,-0.67 2.8,-1.45 4.58,-2.29 1.29,-0.67 2.35,-1.62 3.08,-2.96 0.78,-1.28 1.17,-2.74 1.17,-4.25 0,-1.5 -0.45,-2.84 -1.34,-3.91 -0.84,-1.11 -2.29,-1.67 -4.25,-1.67 -1.95,0 -5.47,1.62 -10.61,4.75 -5.14,3.18 -10.39,7.87 -15.7,14.07 -5.36,6.26 -10.11,14.03 -14.24,23.41 -4.19,9.39 -6.37,20.28 -6.6,32.74 -0.16,7.2 0.79,13.07 2.96,17.71 2.18,4.58 4.92,8.15 8.22,10.78 3.24,2.62 6.87,4.47 10.78,5.53 3.91,1.11 7.76,1.67 11.45,1.67zm61.22 5.87c9.61,-40.33 17.32,-72.79 23.08,-97.2 5.81,-24.47 10.22,-43.13 13.29,-55.98 3.46,-15.25 5.87,-25.86 7.15,-31.73 0.67,-4.19 1.23,-8.21 1.68,-12.12 0.44,-3.52 0.61,-7.1 0.61,-10.78 0,-3.75 -0.28,-7.1 -0.95,-10.17 1.73,-1.12 3.63,-1.96 5.7,-2.63 2.12,-0.67 4.13,-1.22 6.09,-1.62 2.4,-0.67 4.8,-1.22 7.21,-1.67 2.4,-0.39 4.58,-0.62 6.53,-0.62 1.73,0 3.35,0.17 4.92,0.45 1.51,0.34 2.51,1.06 2.96,2.18 1.28,1.06 1.9,3.24 1.79,6.54 -0.12,3.24 -0.39,6.64 -0.84,10.11 -0.84,4.19 -1.85,8.66 -2.96,13.46 -2.63,9.39 -6.2,22.9 -10.78,40.56 -3.91,15.08 -9.22,35.58 -15.87,61.56 -6.65,25.97 -15.03,58.71 -25.03,98.21 -1.11,1.06 -2.4,1.84 -3.96,2.29 -1.51,0.39 -2.91,0.61 -4.25,0.61 -1.51,0 -3.18,-0.11 -4.91,-0.33 -1.51,-0.4 -3.02,-1.07 -4.58,-1.96 -1.29,-0.84 -2.63,-2.01 -3.92,-3.41 -1.34,-1.45 -2.29,-3.35 -2.96,-5.75zm175.14 -46.81c-2.18,8.32 -5.09,16.03 -8.83,23.23 -3.69,7.21 -8.1,13.47 -13.24,18.66 -5.14,5.25 -10.89,9.33 -17.37,12.29 -6.43,2.96 -13.47,4.42 -21.12,4.42 -8.94,0 -15.98,-1.9 -21.12,-5.7 -5.08,-3.86 -8.93,-8.61 -11.45,-14.25 -2.51,-5.7 -4.02,-11.9 -4.58,-18.66 -0.5,-6.76 -0.78,-13.12 -0.78,-18.99 0,-4.13 0.5,-8.71 1.45,-13.74 1.01,-5.03 2.35,-10.17 4.08,-15.42 1.79,-5.2 4.02,-10.45 6.7,-15.7 2.74,-5.25 5.98,-10.05 9.67,-14.41 1.34,-3.69 3.35,-6.98 6.09,-9.78 2.73,-2.85 5.86,-5.19 9.49,-7.03 3.58,-1.9 7.43,-3.3 11.62,-4.31 4.14,-0.95 8.16,-1.45 12.07,-1.45 0.67,0 1.29,0.11 1.84,0.34 0.51,0.22 1.12,0.44 1.79,0.67 2.85,0.22 6.37,1.28 10.62,3.24 4.3,1.95 8.43,4.91 12.45,8.82 4.03,3.97 7.49,8.94 10.34,14.92 2.79,5.98 4.24,13.24 4.24,21.79 0,1.73 -0.11,3.85 -0.33,6.36 -0.23,2.52 -0.45,4.64 -0.67,6.37 5.03,-1.95 10.28,-4.36 15.7,-7.2 5.47,-2.8 10.78,-5.81 15.92,-9 5.08,-3.13 9.83,-6.37 14.19,-9.66 4.41,-3.24 7.87,-6.2 10.5,-8.83 2.18,-1.95 4.02,-3.07 5.58,-3.24 1.51,-0.22 2.57,0.17 3.24,1.29 0.67,1.11 0.79,2.62 0.34,4.58 -0.45,1.95 -1.62,4.13 -3.58,6.53 -1.11,1.34 -3.91,3.91 -8.38,7.88 -4.46,3.91 -9.77,8.16 -15.86,12.74 -6.09,4.58 -12.79,9.05 -19.94,13.46 -7.21,4.36 -14.08,7.6 -20.67,9.78zm-55.31 -49.72c-0.67,1.95 -0.95,4.02 -0.95,6.2 0,3.52 0.17,7.15 0.62,10.95 0.44,3.85 1.56,7.26 3.29,10.33 1.73,3.07 4.53,5.59 8.33,7.71 3.85,2.07 9.1,3.07 15.86,3.07 1.12,0 2.24,-0.05 3.3,-0.16 1.12,-0.12 2.18,-0.28 3.29,-0.45 0.62,-2.85 1.23,-5.42 1.79,-7.71 0.56,-2.29 0.84,-4.3 0.84,-6.09 0.39,-4.13 0.39,-8.38 0,-12.74 -0.45,-4.35 -1.29,-8.38 -2.46,-11.95 -1.23,-3.58 -2.74,-6.54 -4.58,-8.83 -1.9,-2.29 -4.13,-3.46 -6.76,-3.46 -4.13,0 -8.1,1.17 -11.9,3.46 -3.85,2.29 -7.37,5.48 -10.67,9.67zm-20.95 57.59c0,3.91 0.23,7.82 0.67,11.62 0.45,3.8 1.29,7.21 2.63,10.17 1.28,2.9 3.02,5.31 5.25,7.21 2.18,1.84 4.97,2.73 8.49,2.73 3.91,0 7.54,-0.89 10.78,-2.73 3.3,-1.9 6.26,-4.31 8.83,-7.21 2.63,-2.96 4.97,-6.37 7.04,-10.17 2.07,-3.8 3.91,-7.82 5.42,-11.95 -1.51,0.22 -3.02,0.39 -4.42,0.5 -1.39,0.11 -3.01,0.17 -4.74,0.17 -8.27,0 -15.42,-2.46 -21.46,-7.38 -5.97,-4.91 -10.61,-11.17 -13.91,-18.82 -1.28,4.58 -2.4,9.05 -3.24,13.4 -0.89,4.36 -1.34,8.55 -1.34,12.46zm166.92 33.07c6.76,0 14.25,-2.68 22.4,-8.04 8.21,-5.36 16.2,-11.62 23.91,-18.83 7.77,-7.2 14.86,-14.52 21.28,-22.06 6.43,-7.54 11.29,-13.58 14.58,-18.16 1.96,-2.85 3.8,-4.52 5.54,-5.08 1.78,-0.56 3.07,-0.28 3.96,0.78 0.84,1.12 1.17,2.79 0.95,5.08 -0.22,2.29 -1.17,4.86 -2.9,7.71 -1.57,2.63 -4.14,6.37 -7.71,11.29 -3.63,4.91 -7.88,10.28 -12.8,16.03 -4.86,5.81 -10.44,11.68 -16.64,17.71 -6.26,5.98 -12.74,11.45 -19.5,16.37 -6.76,4.86 -13.74,8.93 -20.95,12.06 -7.2,3.19 -14.3,4.75 -21.28,4.75 -9.61,0 -17.6,-1.79 -24.08,-5.36 -6.42,-3.63 -11.56,-8.27 -15.36,-13.91 -3.8,-5.7 -6.48,-11.96 -8.05,-18.83 -1.5,-6.87 -2.29,-13.68 -2.29,-20.5 0,-6.76 1.57,-15.14 4.58,-25.19 3.08,-10 7.6,-19.67 13.64,-28.94 5.97,-9.27 13.57,-17.26 22.73,-23.91 9.16,-6.65 19.95,-10 32.4,-10 6.99,0 12.91,2.4 17.82,7.21 4.92,4.8 7.27,11.34 7.04,19.66 0,3.91 -0.61,7.77 -1.95,11.62 -1.29,3.8 -3.08,7.21 -5.25,10.11 -2.18,2.96 -4.75,5.31 -7.66,7.04 -2.96,1.79 -6.2,2.63 -9.66,2.63 -2.85,0 -4.97,-1.01 -6.37,-3.08 -1.45,-2.12 -2.29,-4.47 -2.63,-7.2 -0.33,-2.74 -0.33,-5.42 0,-8.05 0.34,-2.62 0.67,-4.36 1.12,-5.25 1.12,-1.51 2.29,-2.57 3.63,-3.24 1.29,-0.67 2.8,-1.45 4.58,-2.29 1.29,-0.67 2.35,-1.62 3.08,-2.96 0.78,-1.28 1.17,-2.74 1.17,-4.25 0,-1.5 -0.45,-2.84 -1.34,-3.91 -0.84,-1.11 -2.29,-1.67 -4.25,-1.67 -1.95,0 -5.47,1.62 -10.61,4.75 -5.14,3.18 -10.39,7.87 -15.7,14.07 -5.36,6.26 -10.11,14.03 -14.24,23.41 -4.19,9.39 -6.37,20.28 -6.6,32.74 -0.16,7.2 0.79,13.07 2.96,17.71 2.18,4.58 4.92,8.15 8.22,10.78 3.24,2.62 6.87,4.47 10.78,5.53 3.91,1.11 7.76,1.67 11.45,1.67zm234.07 -54.02c-5.03,8.27 -10.79,16.87 -17.21,25.7 -6.43,8.83 -13.24,16.93 -20.45,24.25 -7.2,7.26 -14.63,13.35 -22.23,18.15 -7.65,4.81 -15.31,7.21 -22.96,7.21 -7.6,0 -13.13,-2.57 -16.48,-7.71 -3.41,-5.14 -4.97,-10.84 -4.75,-17.21 0,-2.79 0.28,-5.3 0.78,-7.48 0.56,-2.24 1.18,-4.19 1.79,-5.93 0.67,-1.73 1.4,-3.51 2.18,-5.41 0.73,-1.85 1.45,-3.97 2.12,-6.37 0.84,-2.85 0.9,-5.42 0.17,-7.71 -0.78,-2.29 -1.73,-4.3 -2.79,-6.03 -1.96,2.17 -4.19,4.07 -6.71,5.75 -2.51,1.62 -5.64,2.4 -9.33,2.4 -2.62,0 -5.02,-1.23 -7.2,-3.74 -2.18,-2.52 -3.3,-5.59 -3.3,-9.33 0,-3.07 0.73,-5.53 2.13,-7.54 1.45,-1.96 3.07,-3.47 4.91,-4.58 1.84,-1.06 3.8,-1.85 5.76,-2.29 1.95,-0.45 3.57,-0.62 4.91,-0.62 0.62,0 2.01,0.11 4.08,0.28 2.07,0.22 4.3,0.56 6.7,1.01 7.88,-6.32 13.47,-12.07 16.87,-17.21 3.36,-5.08 3.63,-9.72 0.79,-13.91 -1.74,-2.79 -3.91,-4.3 -6.54,-4.41 -2.63,-0.11 -5.36,0.56 -8.16,1.95 -2.85,1.46 -5.64,3.24 -8.38,5.42 -2.73,2.18 -5.14,4.25 -7.37,6.2 -4.36,4.42 -9.22,9.56 -14.52,15.59 -5.37,5.98 -9.78,10.95 -13.3,14.86 -1.51,6.59 -3.02,13.46 -4.58,20.67 -1.29,6.31 -2.74,13.46 -4.41,21.39 -1.62,7.99 -3.3,16.2 -5.09,24.75 -1.28,0.62 -2.62,1.12 -4.08,1.45 -1.39,0.34 -2.68,0.62 -3.74,0.84 -1.34,0.22 -2.62,0.34 -3.91,0.34 -1.79,0 -3.41,-0.06 -4.91,-0.17 -1.57,-0.11 -2.8,-0.67 -3.8,-1.68 -0.95,-0.95 -1.51,-2.57 -1.62,-4.75 -0.12,-2.17 0.5,-5.19 1.78,-9.16 1.74,-5.64 3.91,-13.24 6.54,-22.73 2.63,-9.5 5.36,-19.89 8.21,-31.23 2.85,-11.4 5.7,-23.18 8.66,-35.53 2.96,-12.35 5.75,-24.13 8.32,-35.36 2.63,-11.23 4.86,-21.4 6.76,-30.45 1.85,-9.05 3.19,-16.2 4.08,-21.45 0.67,-5.64 1.29,-11.12 1.96,-16.37 0.44,-4.35 0.72,-8.66 0.84,-12.9 0.11,-4.25 -0.17,-7.49 -0.84,-9.67 1.11,-1.11 2.62,-2.06 4.58,-2.96 1.95,-0.83 4.13,-1.5 6.53,-1.95 2.41,-0.67 5.26,-1.17 8.55,-1.62 3.69,-0.45 6.82,-0.56 9.33,-0.34 2.51,0.23 4.3,1.29 5.36,3.3 1.34,2.18 1.62,5.81 0.84,10.95 -0.78,5.14 -2.35,12.29 -4.75,21.45 -3.07,11.79 -6.14,22.51 -9.33,32.23 -3.18,9.72 -6.2,18.83 -9.16,27.32 -2.96,8.49 -5.81,16.76 -8.49,24.69 -2.74,7.99 -5.19,16.15 -7.37,24.41 4.35,-6.31 9.83,-13.01 16.36,-20.11 6.54,-7.09 13.97,-12.96 22.24,-17.54 8.71,-4.58 15.92,-6.87 21.62,-6.87 6.98,0 12.01,2.35 15.02,7.04 3.08,4.69 4.47,10.22 4.31,16.54 -0.23,5.02 -1.51,9.66 -3.8,13.91 -2.29,4.24 -5.09,8.15 -8.33,11.78 -3.29,3.58 -6.76,6.71 -10.5,9.33 -3.69,2.63 -6.87,4.81 -9.5,6.54 3.08,1.73 5.76,4.08 8.05,7.04 2.29,2.96 3.29,6.59 3.13,10.95 -0.23,5.92 -1.4,11.11 -3.47,15.58 -2.06,4.47 -3.12,8.55 -3.12,12.24 0.22,2.84 0.83,4.91 1.84,6.25 0.95,1.29 3.07,1.96 6.37,1.96 5.86,0 12.06,-2.52 18.49,-7.54 6.42,-5.03 12.51,-10.79 18.15,-17.32 5.7,-6.59 10.9,-13.07 15.7,-19.5 4.81,-6.42 8.55,-11.17 11.17,-14.24 3.69,-3.91 6.82,-4.97 9.33,-3.13 2.46,1.9 2.24,5.31 -0.83,10.33z"/>
  </g>
 </g>
</svg>
